<svg width="480" height="375" viewBox="0 0 480 375" fill="none" xmlns="http://www.w3.org/2000/svg">
<g clip-path="url(#clip0_326_6)">
<g opacity="0.12" filter="url(#filter0_f_326_6)">
<path d="M402.754 187C402.754 235.387 396.178 262.623 332.474 282.802C321.377 320.573 277.5 344 239.178 344C198.102 344 177.15 311.786 149.17 285.965C118.086 257.279 77.2461 235.921 77.2461 190.288C77.2461 148.402 123.24 139.939 149.972 111.788C189.391 70.2775 194.355 30 239.178 30C288.238 30 315.602 60.7224 344.393 95.9691C366.486 123.018 402.754 149.351 402.754 187Z" fill="url(#paint0_linear_326_6)"/>
</g>
<path d="M287.583 147.545C284.586 147.545 281.542 148.901 277.64 151.95V148.319H270.266V177.36H278.116V159.306C281.542 156.547 283.111 155.676 284.396 155.676C285.917 155.676 286.917 156.644 286.917 159.064V177.36H294.765V159.258C298.191 156.547 299.714 155.676 301.045 155.676C302.568 155.676 303.566 156.644 303.566 159.064V177.36H311.415V156.257C311.415 149.722 307.751 147.545 304.231 147.545C301.234 147.545 298.189 148.804 294.192 151.901C292.911 148.657 290.104 147.545 287.583 147.545ZM327.354 147.545C319.553 147.545 313.083 154.37 313.083 162.84C313.083 171.31 319.553 178.135 327.354 178.135C331.208 178.135 334.538 176.684 337.108 173.536V177.36H344.578V148.319H337.108V152.144C334.538 148.995 331.208 147.545 327.354 147.545ZM345.957 148.319C349.191 153.449 352.855 158.048 357.137 162.647C352.855 167.438 349.191 172.424 345.957 177.36H355.423C357.658 173.681 360.179 170.342 363.083 167.196C365.937 170.342 368.315 173.681 370.552 177.36H380.113C376.831 172.279 373.263 167.438 368.981 162.647C373.215 158.048 376.831 153.306 380.113 148.319H370.742C368.412 151.998 365.891 155.096 363.083 158.145C360.229 155.096 357.708 151.998 355.423 148.319H345.957ZM328.542 154.273C333.203 154.273 336.962 158.097 336.962 162.84C336.962 167.582 333.203 171.407 328.542 171.407C323.881 171.407 320.122 167.584 320.122 162.84C320.122 158.095 323.881 154.273 328.542 154.273ZM328.542 156.208C324.974 156.208 322.072 159.161 322.072 162.84C322.072 166.519 324.974 169.471 328.542 169.471C332.11 169.471 335.012 166.519 335.012 162.84C335.012 159.161 332.11 156.208 328.542 156.208Z" fill="white"/>
<path d="M243.917 109.166C243.996 109.166 243.996 109.166 244.074 109.191C245.278 109.345 246.456 109.55 247.345 109.959C248.183 110.317 248.68 110.778 249.125 111.596C249.805 112.824 249.858 114.539 249.229 115.843C248.758 116.816 247.764 117.634 246.848 118.069C245.906 118.53 244.964 118.735 243.891 118.863C242.007 119.067 239.966 118.683 238.291 117.89C237.297 117.404 236.067 116.585 235.439 115.536C234.994 114.769 234.994 113.745 235.544 113.004C236.433 111.827 238.317 111.571 239.73 111.622C240.803 111.673 242.766 111.98 243.786 112.338C244.074 112.441 245.121 112.85 245.304 113.029C245.435 113.157 245.514 113.336 245.461 113.515C245.226 114.206 243.472 114.59 242.975 114.667C241.615 114.871 240.934 114.36 239.39 113.771C238.998 113.618 238.501 113.464 238.108 113.438C237.401 113.362 236.564 113.566 236.433 114.308C236.355 114.692 236.826 115.05 237.166 115.204C237.977 115.562 238.658 115.664 239.469 115.69C241.85 115.716 244.545 115.332 246.508 113.976C246.77 113.797 247.031 113.515 247.031 113.183C247.031 112.492 245.801 112.057 245.801 112.057C244.493 111.52 242.033 111.264 240.803 111.161C239.495 111.059 237.401 110.88 236.904 110.803C236.381 110.726 235.831 110.624 235.387 110.445C234.942 110.24 234.497 109.805 234.366 109.319C234.13 108.449 234.418 107.375 234.915 106.658C236.224 104.816 239.286 104.125 241.588 103.844C243.813 103.563 247.398 103.588 249.57 104.714C249.91 104.893 250.067 105.047 250.015 105.405C249.884 106.07 249.36 106.479 248.758 106.684C248.104 106.889 246.77 106.965 246.194 106.991C243.577 107.145 240.411 107.068 237.899 107.733C237.715 107.784 237.375 107.887 237.244 107.989C236.852 108.398 237.977 108.526 238.213 108.577C238.291 108.603 238.291 108.603 238.37 108.603L243.917 109.166ZM228.295 97.7292C228.295 97.7292 228.714 97.1152 229.08 96.6291C229.734 95.7592 230.912 94.5567 231.801 93.8147C232.063 93.5844 232.403 93.3286 232.403 93.3286C232.403 93.3286 231.906 93.3797 231.618 93.4309C230.938 93.5588 229.97 94.1985 229.472 94.6078C228.661 95.2986 227.772 96.3988 228.164 97.371C228.216 97.5501 228.295 97.7292 228.295 97.7292ZM232.822 98.9061C234.104 98.8294 235.308 98.4456 236.433 97.8571C237.532 97.2687 239.155 96.0918 238.972 94.7102C238.919 94.2752 238.631 93.917 238.239 93.7635C237.742 93.5588 237.506 93.5844 236.878 93.7635C236.433 93.8915 236.224 93.9682 235.779 94.2241C234.523 94.9404 232.717 96.4756 231.749 97.7036C231.514 97.9851 231.304 98.3177 231.121 98.5479C231.016 98.6759 230.912 98.8038 230.938 98.855C230.99 98.9573 232.325 98.9573 232.822 98.9061ZM229.551 101.26C229.42 101.388 229.289 101.72 229.132 101.976C229.054 102.104 228.923 102.258 228.818 102.335C228.478 102.565 228.19 102.59 227.876 102.309C227.431 101.925 227.17 101.311 227.144 100.723C227.144 100.467 227.17 100.185 227.117 99.9551C227.039 99.5969 226.672 99.2132 226.463 98.855C226.228 98.4456 226.044 97.7292 226.018 97.2687C225.94 95.8103 226.725 94.4799 227.719 93.4309C228.74 92.3563 230.074 91.4865 231.54 90.8724C232.901 90.3095 234.915 89.9258 236.433 90.4375C236.93 90.591 237.611 91.0003 237.951 91.4353C238.029 91.512 238.082 91.6144 238.16 91.6655C238.239 91.7167 238.396 91.7167 238.553 91.7423C239.024 91.8191 239.73 92.1772 240.018 92.4075C240.594 92.8936 240.908 93.3542 241.039 94.0194C241.327 95.3498 240.542 96.8337 239.652 97.7292C238.108 99.2643 236.59 100.339 234.628 101.106C233.764 101.439 232.43 101.746 231.435 101.669C231.121 101.644 230.807 101.567 230.519 101.541C230.362 101.516 229.813 101.388 229.76 101.362C229.656 101.286 229.577 101.26 229.551 101.26ZM231.304 104.228C231.357 104.228 231.461 104.253 231.54 104.305C232.22 104.56 232.508 105.174 232.691 105.865C233.084 107.452 233.241 110.982 233.319 112.364C233.372 113.387 233.398 114.411 233.45 115.434C233.476 116.304 233.555 117.455 233.372 118.248C233.293 118.53 233.11 118.888 232.822 119.042C232.482 119.246 231.749 119.272 231.33 119.17C230.31 118.965 229.996 118.325 229.839 117.353C229.499 115.025 229.656 110.445 229.865 108.526C229.944 107.887 230.179 105.84 230.519 104.995C230.624 104.74 230.886 104.151 231.304 104.228ZM200.609 108.117C200.609 108.117 199.117 108.219 198.071 108.321C196.762 108.449 194.276 108.884 192.863 109.37C192.444 109.524 191.555 109.882 191.502 110.317C191.424 110.752 191.712 111.11 192.026 111.468C192.209 111.673 193.23 112.645 193.517 112.876C194.721 113.873 197.181 115.383 198.987 116.125C199.615 116.381 200.635 116.739 200.635 116.739C200.635 116.739 200.557 113.873 200.583 111.059C200.583 109.575 200.609 108.117 200.609 108.117ZM228.138 109.243C228.216 110.01 228.033 111.468 227.981 111.648C227.929 112.082 227.588 113.106 227.51 113.234C227.222 113.848 226.96 114.36 226.672 114.871C226.175 115.741 224.998 117.123 224.317 117.711C221.727 119.886 217.723 121.14 214.295 121.549C211.966 121.83 209.297 121.779 206.811 121.344C205.973 121.191 204.691 120.909 204.691 120.909C204.691 120.909 204.691 121.395 204.665 121.754C204.639 121.907 204.534 122.342 204.456 122.47C204.273 122.828 203.985 123.007 203.566 123.11C203.043 123.212 202.493 123.238 202.022 123.033C201.237 122.7 200.949 121.984 200.818 121.165C200.714 120.5 200.583 119.349 200.583 119.349C200.583 119.349 200.007 119.067 199.51 118.837C198.018 118.121 196.579 117.225 195.323 116.33C194.983 116.074 193.491 114.871 193.151 114.564C192.235 113.72 191.398 112.85 190.77 111.775C190.273 110.931 190.142 110.164 190.508 109.268C191.031 108.014 192.863 107.068 194.119 106.53C195.035 106.121 197.94 105.2 199.117 105.047C199.693 104.97 200.557 104.816 200.609 104.791C200.635 104.765 200.635 104.765 200.661 104.74C200.687 104.714 200.74 103.46 200.714 103C200.714 102.539 201.054 99.6225 201.158 98.9829C201.211 98.6503 201.473 97.3454 201.734 97.0128C201.917 96.7826 202.205 96.8082 202.467 96.9617C203.828 97.806 204.246 100.697 204.351 102.155C204.403 103.051 204.456 104.407 204.456 104.407C204.456 104.407 206.026 104.356 206.994 104.381C207.936 104.407 208.983 104.56 209.951 104.688C211.207 104.893 213.641 105.405 215.028 106.096C216.179 106.658 217.252 107.631 217.618 108.654C217.932 109.575 217.906 110.24 217.409 111.085C216.859 112.031 215.813 112.748 214.74 112.799C214.426 112.824 213.222 112.671 212.856 112.389C212.725 112.287 212.725 112.082 212.83 111.955C212.856 111.903 213.431 111.622 213.745 111.443C213.902 111.366 214.059 111.264 214.164 111.136C214.426 110.906 214.687 110.65 214.661 110.343C214.635 109.959 214.19 109.703 213.798 109.55C211.887 108.808 208.067 108.194 206.235 108.091C205.502 108.04 204.482 108.014 204.482 108.014L204.691 117.967C204.691 117.967 205.529 118.121 206.209 118.223C206.601 118.274 208.224 118.428 208.643 118.428C211.94 118.504 215.603 118.223 218.613 116.841C219.947 116.227 221.151 115.485 222.067 114.436C223.271 113.08 223.925 111.213 223.742 109.268C223.558 107.145 222.041 104.637 220.811 103.102C217.592 99.0596 212.071 95.708 207.203 93.7635C202.231 91.7679 197.338 90.6166 192.078 90.4375C190.717 90.3863 187.76 90.463 186.269 90.8724C186.059 90.9236 185.85 91.0003 185.641 91.0515C185.484 91.0771 185.248 91.1794 185.17 91.2562C185.144 91.2818 185.091 91.3329 185.091 91.3329C185.091 91.3329 185.196 91.3841 185.274 91.4097C185.431 91.4865 186.112 91.512 186.452 91.5888C186.766 91.64 187.08 91.7935 187.211 92.0237C187.342 92.2284 187.342 92.4075 187.211 92.5866C186.871 92.996 185.588 92.9192 185.039 92.8425C184.463 92.7401 183.73 92.5866 183.6 92.0749C183.443 91.4865 183.73 90.9236 184.044 90.3863C184.673 89.3117 185.536 88.7744 186.844 88.4162C188.676 87.9301 191.005 87.5719 192.732 87.5208C196.658 87.3673 200.373 88.0581 204.194 89.1838C206.366 89.8234 209.218 90.898 211.312 91.8958C212.803 92.6122 215.185 93.8915 216.493 94.7613C216.912 95.0428 219.372 96.7826 219.738 97.0896C220.523 97.7292 221.57 98.6247 222.329 99.3667C223.794 100.774 225.6 102.923 226.463 104.663C226.672 105.072 226.83 105.482 227.117 105.942C227.222 106.096 227.615 107.068 227.667 107.349C227.745 107.631 227.824 108.04 227.85 108.066C227.981 108.091 228.164 108.91 228.138 109.243ZM277.57 107.042C275.738 107.452 270.897 107.682 270.897 107.682L270.295 109.55C270.295 109.55 272.702 109.345 274.482 109.524C274.482 109.524 275.058 109.447 275.11 110.164C275.136 110.803 275.058 111.52 275.058 111.52C275.058 111.52 275.031 111.955 274.403 112.057C273.749 112.159 269.196 112.338 269.196 112.338L268.463 114.769C268.463 114.769 268.201 115.332 268.803 115.178C269.379 115.025 274.142 114.155 274.77 114.283C275.424 114.436 276.183 115.306 275.947 116.099C275.686 117.072 270.923 120.039 268.044 119.835C268.044 119.835 266.527 119.937 265.244 117.916C264.041 115.997 265.689 112.364 265.689 112.364C265.689 112.364 264.93 110.675 265.48 110.087C265.48 110.087 265.794 109.805 266.762 109.729L267.94 107.375C267.94 107.375 266.605 107.452 265.82 106.505C265.087 105.609 265.035 105.174 265.585 104.944C266.186 104.663 271.734 103.665 275.529 103.793C275.529 103.793 276.863 103.665 277.988 105.916C277.962 105.916 278.512 106.838 277.57 107.042ZM263.256 116.125C262.758 117.251 261.476 118.453 259.88 117.711C258.31 116.969 255.772 111.929 255.772 111.929C255.772 111.929 254.803 110.061 254.62 110.087C254.62 110.087 254.411 109.729 254.28 111.775C254.149 113.822 254.306 117.814 253.469 118.428C252.684 119.067 251.715 118.811 251.218 118.069C250.773 117.353 250.59 115.613 250.826 112.594C251.114 109.575 251.846 106.351 252.762 105.354C253.678 104.356 254.411 105.072 254.699 105.354C254.699 105.354 255.929 106.454 257.943 109.626L258.31 110.215C258.31 110.215 260.142 113.234 260.351 113.234C260.351 113.234 260.508 113.362 260.639 113.259C260.822 113.208 260.743 112.236 260.743 112.236C260.743 112.236 260.351 108.935 258.676 103.384C258.676 103.384 258.415 102.693 258.598 102.028C258.781 101.362 259.435 101.669 259.435 101.669C259.435 101.669 262.026 102.949 263.308 107.093C264.59 111.238 263.727 114.999 263.256 116.125ZM291.229 113.643C290.052 115.664 286.702 119.886 282.254 118.888C280.788 122.368 279.558 125.898 278.852 131.143C278.852 131.143 278.695 132.167 277.831 131.809C276.968 131.502 275.555 130.12 275.267 128.175C274.953 125.617 276.13 121.319 278.486 116.381C277.805 115.281 277.334 113.72 277.727 111.468C277.727 111.468 278.329 107.324 282.594 103.588C282.594 103.588 283.117 103.153 283.405 103.281C283.719 103.409 283.588 104.765 283.327 105.43C283.065 106.096 281.155 109.294 281.155 109.294C281.155 109.294 279.977 111.468 280.291 113.183C282.515 109.831 287.618 103.051 290.758 105.174C291.805 105.916 292.302 107.528 292.302 109.268C292.302 110.803 291.936 112.415 291.229 113.643ZM290.314 108.321C290.314 108.321 290.13 106.991 288.796 108.449C287.644 109.703 285.577 112.031 283.902 115.178C285.656 114.974 287.33 114.053 287.854 113.592C288.691 112.876 290.628 110.906 290.314 108.321ZM315.723 108.014H307.585C307.428 105.302 307.087 102.667 306.564 99.9551C306.512 99.6737 306.25 99.469 305.962 99.469H304.078C303.921 99.469 303.764 99.5458 303.659 99.6737C303.555 99.8016 303.502 99.9551 303.555 100.134C304.078 102.769 304.418 105.354 304.601 108.04H296.777C296.411 108.04 296.123 108.321 296.123 108.68V110.343C296.123 110.701 296.411 110.982 296.777 110.982H304.732C304.732 111.392 304.732 111.75 304.732 112.108C304.732 114.487 304.628 116.458 304.392 118.683C304.366 118.863 304.418 119.016 304.549 119.144C304.654 119.272 304.837 119.349 304.994 119.349H306.747C307.087 119.349 307.375 119.093 307.401 118.76C307.637 116.534 307.742 114.539 307.742 112.108C307.742 111.775 307.742 111.392 307.742 110.982H315.775C316.142 110.982 316.429 110.701 316.429 110.343V108.68C316.377 108.296 316.089 108.014 315.723 108.014Z" fill="white"/>
<path d="M305.439 95.5801C301.304 85.6019 294.265 77.082 285.158 70.9928C275.816 64.7244 264.878 61.424 253.495 61.424C234.68 61.424 217.252 70.5578 206.837 85.8577C206.732 86.0112 206.706 86.2415 206.758 86.4206C206.837 86.6253 206.968 86.7532 207.177 86.83L208.643 87.3161C208.721 87.3417 208.826 87.3672 208.904 87.3672C209.166 87.3672 209.428 87.2393 209.585 87.0091C214.373 80.1522 220.837 74.4212 228.295 70.4811C235.988 66.413 244.729 64.2383 253.521 64.2383C264.172 64.2383 274.429 67.3085 283.196 73.1163C291.753 78.7707 298.426 86.6764 302.429 95.9638C302.56 96.2453 302.822 96.4244 303.136 96.4244H304.889C305.099 96.4244 305.282 96.322 305.386 96.1685C305.517 95.9638 305.517 95.7592 305.439 95.5801Z" fill="url(#paint1_radial_326_6)"/>
<path fill-rule="evenodd" clip-rule="evenodd" d="M128.884 178.529V178.763C128.931 178.995 129.056 179.207 129.24 179.367C140.16 189.521 154.892 195.217 170.244 195.22C181.565 195.22 194.721 191.613 203.796 184.819C203.954 184.742 204.094 184.635 204.207 184.506C204.32 184.376 204.404 184.226 204.454 184.065C204.504 183.904 204.518 183.735 204.497 183.569C204.476 183.402 204.419 183.242 204.329 183.096C204.24 182.951 204.121 182.825 203.978 182.724C203.835 182.624 203.673 182.551 203.499 182.512C203.326 182.472 203.146 182.466 202.971 182.493C202.795 182.521 202.627 182.582 202.477 182.672C192.651 186.888 181.988 189.101 171.189 189.164C156.696 189.146 142.495 185.323 130.185 178.126C130.008 178.021 129.805 177.963 129.597 177.958C129.427 177.957 129.262 178.014 129.134 178.119C129.006 178.224 128.923 178.37 128.901 178.529" fill="#18A6E1"/>
<path fill-rule="evenodd" clip-rule="evenodd" d="M196.779 178.339C196.653 178.426 196.544 178.541 196.459 178.676C196.374 178.811 196.315 178.964 196.287 179.126V179.294C196.287 179.575 196.558 179.781 197 179.707C199.77 179.313 205.989 178.433 207.093 180.119C208.198 181.804 205.853 188.698 204.816 191.788C204.493 192.706 205.173 193.1 205.887 192.388C210.525 187.799 211.732 178.171 210.78 176.784C209.202 175.762 207.367 175.328 205.547 175.548C202.43 175.433 199.361 176.41 196.779 178.339Z" fill="#18A6E1"/>
<path fill-rule="evenodd" clip-rule="evenodd" d="M182.111 170.051C181.947 170.082 181.781 170.082 181.617 170.051C181.495 169.999 181.386 169.917 181.301 169.812C181.194 169.657 181.105 169.49 181.036 169.314L175.965 155.366L175.754 154.85C175.731 154.741 175.731 154.628 175.754 154.518C175.754 154.205 175.948 154.039 176.353 154.039H179.276C179.395 154.021 179.516 154.027 179.633 154.058C179.75 154.089 179.859 154.144 179.956 154.219C180.052 154.295 180.134 154.389 180.195 154.497C180.257 154.605 180.297 154.725 180.315 154.85L183.361 165.905L186.477 154.85C186.494 154.725 186.535 154.605 186.597 154.497C186.658 154.389 186.74 154.295 186.836 154.219C186.932 154.144 187.042 154.089 187.159 154.058C187.276 154.027 187.397 154.021 187.516 154.039H190.404C190.791 154.039 191.002 154.205 191.002 154.518C191.017 154.628 191.017 154.74 191.002 154.85L190.862 155.292L185.773 169.24C185.715 169.418 185.632 169.586 185.526 169.738C185.441 169.844 185.332 169.926 185.209 169.977C185.047 170.013 184.879 170.013 184.716 169.977L182.111 170.051ZM193.89 170.051C193.789 170.071 193.684 170.065 193.586 170.033C193.488 170.001 193.398 169.944 193.325 169.868C193.253 169.792 193.199 169.698 193.168 169.595C193.138 169.492 193.132 169.383 193.151 169.277V154.832C193.139 154.72 193.148 154.607 193.179 154.5C193.209 154.392 193.259 154.292 193.327 154.205C193.494 154.093 193.694 154.047 193.89 154.076H196.743C196.949 154.053 197.157 154.112 197.324 154.242C197.446 154.424 197.502 154.647 197.482 154.868V169.314C197.5 169.524 197.443 169.734 197.324 169.904C197.245 169.976 197.152 170.029 197.052 170.061C196.952 170.093 196.846 170.102 196.743 170.088L193.89 170.051ZM195.316 151.626C194.67 151.646 194.041 151.409 193.556 150.962C193.114 150.482 192.868 149.841 192.868 149.175C192.868 148.509 193.114 147.868 193.556 147.388C194.07 146.957 194.71 146.723 195.369 146.723C196.028 146.723 196.668 146.957 197.183 147.388C197.624 147.868 197.87 148.509 197.87 149.175C197.87 149.841 197.624 150.482 197.183 150.962C196.697 151.409 196.068 151.646 195.422 151.626H195.316ZM206.62 170.456C205.427 170.485 204.256 170.117 203.275 169.406C202.301 168.668 201.545 167.66 201.092 166.495C200.577 165.105 200.343 163.618 200.405 162.128C200.307 159.91 200.927 157.722 202.166 155.919C202.706 155.174 203.407 154.575 204.213 154.172C205.018 153.768 205.904 153.571 206.797 153.597C208.266 153.561 209.702 154.055 210.864 154.997V147.627C210.853 147.517 210.864 147.406 210.898 147.301C210.931 147.196 210.986 147.1 211.058 147.019C211.218 146.891 211.42 146.831 211.621 146.853H214.456C214.663 146.83 214.87 146.889 215.037 147.019C215.106 147.102 215.157 147.199 215.187 147.303C215.218 147.408 215.226 147.519 215.213 147.627V169.277C215.233 169.385 215.227 169.496 215.196 169.601C215.164 169.706 215.109 169.801 215.034 169.877C214.958 169.954 214.866 170.01 214.766 170.04C214.665 170.071 214.558 170.074 214.456 170.051H212.008C211.81 170.069 211.612 170.017 211.445 169.904C211.303 169.759 211.205 169.573 211.163 169.369L210.987 168.651C209.802 169.802 208.237 170.429 206.62 170.401V170.456ZM208.047 166.974C209.02 166.968 209.969 166.66 210.776 166.09V157.761C209.88 157.232 208.864 156.965 207.835 156.987C207.376 156.958 206.917 157.057 206.505 157.274C206.094 157.491 205.745 157.818 205.494 158.222C204.918 159.353 204.65 160.628 204.719 161.907C204.645 163.194 204.932 164.475 205.546 165.592C205.831 165.999 206.21 166.325 206.647 166.537C207.084 166.75 207.566 166.843 208.047 166.808V166.974ZM241.343 170.549C240.324 170.608 239.305 170.439 238.354 170.051C237.403 169.663 236.543 169.066 235.832 168.301C234.42 166.56 233.713 164.313 233.86 162.036C233.725 159.768 234.439 157.535 235.849 155.808C237.361 154.375 239.329 153.581 241.369 153.581C243.41 153.581 245.377 154.375 246.889 155.808C248.293 157.539 249.006 159.769 248.879 162.036C249.009 164.308 248.296 166.546 246.889 168.282C246.174 169.048 245.311 169.645 244.358 170.033C243.404 170.421 242.382 170.59 241.36 170.53L241.343 170.549ZM241.343 167.029C243.397 166.992 244.424 165.328 244.424 162.036C244.424 158.738 243.385 157.079 241.308 157.079C239.23 157.079 238.191 158.738 238.191 162.036C238.191 165.334 239.23 167.011 241.308 167.011L241.343 167.029ZM225.056 163.473C224.088 163.493 223.123 163.375 222.186 163.123C222.184 163.672 222.288 164.216 222.49 164.722C222.693 165.228 222.991 165.687 223.365 166.071C224.238 166.743 225.314 167.064 226.394 166.974C226.924 166.975 227.453 166.938 227.979 166.863C228.696 166.742 229.407 166.582 230.109 166.384H230.285H230.338C230.655 166.384 230.831 166.624 230.831 167.085V168.503C230.846 168.746 230.798 168.988 230.69 169.203C230.555 169.368 230.378 169.489 230.18 169.554C228.741 170.128 227.212 170.416 225.672 170.401C224.663 170.473 223.65 170.326 222.699 169.967C221.747 169.609 220.877 169.048 220.143 168.319C218.764 166.663 218.068 164.504 218.206 162.312C218.056 159.989 218.776 157.696 220.214 155.919C220.916 155.15 221.769 154.549 222.714 154.158C223.66 153.767 224.675 153.594 225.69 153.652C227.218 153.557 228.727 154.048 229.933 155.034C230.431 155.493 230.825 156.061 231.087 156.698C231.348 157.336 231.472 158.026 231.447 158.719C231.485 159.398 231.353 160.076 231.066 160.686C230.779 161.296 230.347 161.818 229.81 162.202C228.379 163.105 226.725 163.547 225.056 163.473ZM225.461 156.822C223.612 156.822 222.538 158.038 222.238 160.507C223.091 160.677 223.959 160.757 224.827 160.746C225.522 160.76 226.208 160.582 226.816 160.23C227.038 160.063 227.215 159.841 227.332 159.583C227.449 159.325 227.502 159.041 227.486 158.756C227.486 157.466 226.764 156.822 225.302 156.822" fill="white"/>
<path fill-rule="evenodd" clip-rule="evenodd" d="M98.2792 156.669C97.2602 156.665 96.2598 156.949 95.3881 157.489V165.469C96.259 166.011 97.2599 166.295 98.2792 166.289C98.7481 166.322 99.2176 166.233 99.6439 166.03C100.07 165.828 100.44 165.519 100.717 165.131C101.308 164.045 101.58 162.808 101.501 161.568C101.634 160.28 101.398 158.981 100.822 157.827C100.542 157.437 100.17 157.126 99.7406 156.923C99.311 156.721 98.838 156.633 98.3663 156.669H98.2792ZM91.0863 154.55C91.0643 154.446 91.0677 154.338 91.0964 154.236C91.125 154.134 91.178 154.041 91.2505 153.965C91.323 153.889 91.4128 153.833 91.5118 153.801C91.6108 153.77 91.716 153.763 91.8178 153.784H93.9426C94.1397 153.768 94.3354 153.829 94.4905 153.954C94.6455 154.08 94.7484 154.261 94.7786 154.461L94.9701 155.244C95.5837 154.627 96.3122 154.143 97.1123 153.819C97.9235 153.474 98.794 153.298 99.6725 153.303C100.54 153.268 101.404 153.446 102.191 153.821C102.979 154.196 103.667 154.757 104.201 155.458C105.379 157.146 105.963 159.194 105.855 161.265C105.889 162.775 105.61 164.274 105.037 165.665C104.56 166.824 103.783 167.828 102.79 168.569C101.842 169.248 100.708 169.604 99.5506 169.584C98.7997 169.584 98.0535 169.464 97.3387 169.228C96.6169 168.985 95.9526 168.59 95.3881 168.07V174.715C95.4099 174.924 95.354 175.134 95.2314 175.302C95.1534 175.372 95.0618 175.424 94.9627 175.455C94.8636 175.485 94.7593 175.494 94.6567 175.481H91.8178C91.716 175.501 91.6108 175.495 91.5118 175.463C91.4128 175.431 91.323 175.375 91.2505 175.299C91.178 175.223 91.125 175.13 91.0964 175.028C91.0677 174.926 91.0643 174.818 91.0863 174.715V154.55Z" fill="#18A6E1"/>
<path fill-rule="evenodd" clip-rule="evenodd" d="M112.807 156.432C113.503 155.712 114.341 155.105 115.283 154.64C116.039 154.294 116.883 154.116 117.738 154.121H118.202C118.425 154.115 118.643 154.174 118.821 154.288C118.895 154.364 118.95 154.453 118.983 154.548C119.016 154.643 119.027 154.742 119.015 154.841V157.236C119.033 157.432 118.972 157.628 118.841 157.789C118.661 157.914 118.432 157.974 118.202 157.956H117.603H116.694C116.043 157.962 115.395 158.03 114.76 158.157C114.129 158.249 113.512 158.407 112.923 158.626V168.19C112.942 168.386 112.881 168.582 112.749 168.743C112.663 168.808 112.561 168.857 112.451 168.886C112.341 168.915 112.225 168.923 112.111 168.91H109.153C108.929 168.927 108.706 168.867 108.534 168.743C108.461 168.666 108.407 168.578 108.374 168.483C108.34 168.388 108.329 168.289 108.34 168.19V154.975C108.326 154.876 108.335 154.776 108.369 154.681C108.402 154.585 108.458 154.497 108.534 154.422C108.712 154.31 108.934 154.262 109.153 154.288H111.512C111.731 154.273 111.948 154.331 112.12 154.449C112.292 154.567 112.406 154.737 112.44 154.925L112.865 156.466L112.807 156.432Z" fill="#18A6E1"/>
<path fill-rule="evenodd" clip-rule="evenodd" d="M120.948 154.463C120.926 154.362 120.929 154.256 120.958 154.156C120.988 154.056 121.042 153.965 121.115 153.89C121.189 153.816 121.281 153.76 121.381 153.729C121.482 153.698 121.589 153.692 121.693 153.712H124.584C124.688 153.702 124.794 153.712 124.894 153.742C124.994 153.772 125.088 153.821 125.169 153.887C125.294 154.052 125.351 154.258 125.329 154.463V168.161C125.346 168.365 125.289 168.57 125.169 168.737C125.088 168.803 124.994 168.852 124.894 168.882C124.794 168.912 124.688 168.922 124.584 168.912H121.693C121.591 168.923 121.488 168.913 121.391 168.883C121.293 168.853 121.203 168.803 121.126 168.737C121.059 168.657 121.009 168.565 120.979 168.466C120.948 168.367 120.938 168.264 120.948 168.161V154.463ZM123.13 151.371C122.479 151.39 121.845 151.165 121.356 150.742C120.912 150.286 120.664 149.679 120.664 149.047C120.664 148.416 120.912 147.808 121.356 147.353C121.845 146.929 122.479 146.705 123.13 146.724C123.779 146.71 124.411 146.934 124.903 147.353C125.347 147.808 125.596 148.416 125.596 149.047C125.596 149.679 125.347 150.286 124.903 150.742C124.411 151.161 123.779 151.385 123.13 151.371Z" fill="#18A6E1"/>
<path fill-rule="evenodd" clip-rule="evenodd" d="M132.957 155.18C133.859 154.584 134.837 154.103 135.867 153.75C136.732 153.457 137.643 153.31 138.56 153.314C139.327 153.249 140.098 153.392 140.785 153.728C141.472 154.064 142.047 154.58 142.446 155.215C143.342 154.6 144.321 154.107 145.356 153.75C146.278 153.458 147.242 153.31 148.212 153.314C148.816 153.276 149.421 153.359 149.99 153.558C150.559 153.756 151.08 154.065 151.52 154.465C151.935 154.901 152.254 155.413 152.459 155.97C152.664 156.528 152.75 157.12 152.713 157.71V168.177C152.731 168.379 152.666 168.58 152.532 168.736C152.451 168.804 152.356 168.855 152.253 168.885C152.15 168.915 152.042 168.924 151.935 168.91H148.971C148.867 168.922 148.762 168.913 148.663 168.883C148.563 168.853 148.471 168.803 148.393 168.736C148.323 168.66 148.27 168.572 148.236 168.476C148.201 168.38 148.187 168.279 148.194 168.177V158.617C148.194 157.274 147.579 156.594 146.386 156.594C145.23 156.607 144.093 156.875 143.061 157.379V168.16C143.07 168.361 143.006 168.559 142.88 168.718C142.799 168.786 142.704 168.837 142.601 168.867C142.498 168.897 142.39 168.906 142.283 168.893H139.355C139.252 168.905 139.146 168.895 139.047 168.865C138.947 168.835 138.855 168.785 138.777 168.718C138.707 168.643 138.654 168.554 138.62 168.458C138.585 168.363 138.571 168.261 138.578 168.16V158.617C138.578 157.274 137.963 156.594 136.771 156.594C135.601 156.607 134.45 156.882 133.409 157.396V168.16C133.427 168.362 133.362 168.563 133.228 168.718C133.147 168.786 133.052 168.837 132.949 168.867C132.846 168.897 132.738 168.906 132.631 168.893H129.649C129.545 168.905 129.44 168.895 129.34 168.865C129.241 168.835 129.149 168.785 129.071 168.718C128.936 168.563 128.871 168.362 128.89 168.16V154.465C128.876 154.362 128.885 154.258 128.916 154.159C128.947 154.059 129 153.968 129.071 153.889C129.149 153.823 129.241 153.773 129.34 153.743C129.44 153.713 129.545 153.703 129.649 153.715H131.854C132.057 153.7 132.258 153.76 132.415 153.883C132.573 154.007 132.677 154.184 132.704 154.378L132.957 155.18Z" fill="#18A6E1"/>
<path fill-rule="evenodd" clip-rule="evenodd" d="M162.743 156.507C160.787 156.507 159.646 157.76 159.356 160.245C160.252 160.418 161.162 160.499 162.073 160.488C162.863 160.547 163.653 160.378 164.356 160.002C164.584 159.829 164.766 159.6 164.886 159.335C165.006 159.071 165.061 158.78 165.044 158.489C165.044 157.143 164.283 156.489 162.743 156.489M162.327 163.348C161.303 163.366 160.28 163.253 159.283 163.012C159.293 164.158 159.743 165.253 160.533 166.058C161.465 166.742 162.6 167.066 163.74 166.974C164.297 166.974 164.854 166.937 165.407 166.862C166.164 166.747 166.915 166.585 167.653 166.376H167.852H167.997C168.342 166.376 168.523 166.619 168.523 167.105V168.562C168.541 168.809 168.491 169.055 168.378 169.273C168.242 169.448 168.059 169.578 167.852 169.646C166.332 170.249 164.716 170.553 163.088 170.544C162.023 170.615 160.956 170.459 159.952 170.086C158.949 169.713 158.03 169.131 157.254 168.376C156.53 167.534 155.976 166.551 155.625 165.486C155.273 164.42 155.131 163.293 155.207 162.17C155.065 159.807 155.811 157.478 157.29 155.666C158.034 154.865 158.938 154.24 159.939 153.833C160.94 153.427 162.014 153.249 163.088 153.311C164.691 153.209 166.276 153.714 167.544 154.732C168.077 155.203 168.498 155.793 168.777 156.457C169.057 157.12 169.186 157.84 169.157 158.563C169.184 159.275 169.031 159.982 168.713 160.614C168.395 161.246 167.924 161.783 167.345 162.17C165.795 163.086 164.018 163.509 162.236 163.385" fill="#18A6E1"/>
<path d="M87.0835 224.181C84.6925 224.181 82.3994 225.13 80.7087 226.821C79.018 228.512 78.0681 230.805 78.0681 233.196V254.033H82.3485V242.462L83.9164 244.124L90.188 241.647C92.1696 240.911 93.8295 239.501 94.8776 237.665C95.9256 235.829 96.2952 233.684 95.9216 231.603C95.5481 229.522 94.4551 227.639 92.8339 226.282C91.2127 224.925 89.1662 224.182 87.0522 224.181H87.0835ZM88.6514 237.868L82.3798 240.346V233.196C82.3798 231.948 82.8754 230.752 83.7575 229.87C84.6396 228.988 85.836 228.492 87.0835 228.492C88.331 228.492 89.5274 228.988 90.4095 229.87C91.2916 230.752 91.7872 231.948 91.7872 233.196C91.8226 234.21 91.5391 235.209 90.9765 236.053C90.4139 236.896 89.6007 237.543 88.6514 237.9V237.868ZM162.468 224.181C160.685 224.181 158.942 224.709 157.459 225.7C155.977 226.691 154.821 228.099 154.139 229.746C153.456 231.393 153.278 233.206 153.626 234.955C153.974 236.704 154.832 238.31 156.093 239.571C157.354 240.832 158.96 241.69 160.709 242.038C162.458 242.386 164.271 242.207 165.918 241.525C167.565 240.843 168.973 239.687 169.964 238.205C170.955 236.722 171.483 234.979 171.483 233.196C171.483 230.81 170.538 228.522 168.854 226.832C167.17 225.142 164.885 224.189 162.499 224.181H162.468ZM162.468 238.135C161.478 238.185 160.496 237.937 159.649 237.424C158.801 236.91 158.127 236.154 157.714 235.253C157.301 234.352 157.167 233.348 157.33 232.371C157.493 231.393 157.946 230.487 158.629 229.77C159.313 229.052 160.196 228.556 161.164 228.345C162.132 228.135 163.142 228.219 164.062 228.588C164.981 228.957 165.769 229.593 166.324 230.415C166.878 231.236 167.174 232.205 167.172 233.196C167.203 233.831 167.106 234.465 166.886 235.061C166.666 235.657 166.327 236.202 165.891 236.664C165.454 237.125 164.929 237.494 164.346 237.746C163.763 237.999 163.135 238.131 162.499 238.135H162.468ZM182.004 228.273C182.867 228.263 183.716 228.496 184.453 228.945C185.191 229.394 185.787 230.041 186.175 230.813L189.593 228.273C188.52 226.661 186.958 225.437 185.136 224.783C183.315 224.128 181.331 224.077 179.478 224.637C177.625 225.197 176.002 226.338 174.848 227.892C173.694 229.447 173.071 231.331 173.071 233.267C173.071 235.202 173.694 237.086 174.848 238.641C176.002 240.195 177.625 241.336 179.478 241.896C181.331 242.456 183.315 242.405 185.136 241.75C186.958 241.096 188.52 239.872 189.593 238.26L186.253 235.705C185.865 236.476 185.269 237.123 184.532 237.572C183.794 238.021 182.946 238.254 182.082 238.245C181.443 238.245 180.81 238.116 180.222 237.864C179.635 237.612 179.105 237.243 178.664 236.779C178.224 236.316 177.883 235.767 177.662 235.167C177.441 234.567 177.345 233.929 177.379 233.29C177.332 232.013 177.792 230.769 178.658 229.829C179.524 228.889 180.727 228.33 182.004 228.273ZM145.55 228.273C146.411 228.264 147.257 228.498 147.992 228.947C148.727 229.396 149.32 230.043 149.705 230.813L153.061 228.273C151.988 226.661 150.426 225.437 148.604 224.783C146.783 224.128 144.799 224.077 142.946 224.637C141.093 225.197 139.47 226.338 138.316 227.892C137.162 229.447 136.539 231.331 136.539 233.267C136.539 235.202 137.162 237.086 138.316 238.641C139.47 240.195 141.093 241.336 142.946 241.896C144.799 242.456 146.783 242.405 148.604 241.75C150.426 241.096 151.988 239.872 153.061 238.26L149.705 235.705C149.32 236.475 148.727 237.121 147.992 237.57C147.257 238.02 146.411 238.253 145.55 238.245C144.911 238.245 144.278 238.116 143.69 237.864C143.103 237.612 142.573 237.243 142.132 236.779C141.692 236.316 141.351 235.767 141.13 235.167C140.909 234.567 140.813 233.929 140.847 233.29C140.822 232.651 140.924 232.013 141.147 231.413C141.371 230.813 141.711 230.264 142.149 229.798C142.587 229.331 143.113 228.956 143.697 228.694C144.281 228.432 144.911 228.289 145.55 228.273ZM130.608 226.36C129.919 225.657 129.093 225.101 128.182 224.727C127.271 224.352 126.294 224.166 125.309 224.181C123.032 224.345 120.903 225.366 119.348 227.037C117.793 228.708 116.929 230.906 116.929 233.188C116.929 235.471 117.793 237.668 119.348 239.339C120.903 241.011 123.032 242.031 125.309 242.196C126.305 242.228 127.297 242.053 128.222 241.684C129.148 241.314 129.987 240.757 130.687 240.048V241.616H134.967V224.729H130.608V226.36ZM125.905 238.166C124.915 238.216 123.933 237.969 123.085 237.455C122.238 236.941 121.564 236.185 121.151 235.284C120.737 234.384 120.604 233.38 120.767 232.402C120.93 231.425 121.383 230.519 122.066 229.801C122.749 229.083 123.632 228.587 124.601 228.377C125.569 228.166 126.578 228.251 127.498 228.62C128.418 228.988 129.206 229.625 129.76 230.446C130.315 231.268 130.61 232.236 130.608 233.227C130.636 233.865 130.534 234.501 130.308 235.097C130.082 235.694 129.737 236.238 129.294 236.697C128.851 237.156 128.319 237.52 127.731 237.768C127.143 238.015 126.511 238.14 125.873 238.135L125.905 238.166ZM201.43 232.616H199.486L206.902 224.776H201.399L195.409 231.236V215.557H191.16V241.678H195.425V236.849L197.777 234.356L202.81 241.678H207.984L201.43 232.616ZM106.494 224.181C105.28 224.13 104.067 224.325 102.93 224.755C101.793 225.185 100.755 225.84 99.8776 226.682C99.0004 227.523 98.3023 228.533 97.8255 229.651C97.3486 230.77 97.1028 231.973 97.1028 233.188C97.1028 234.404 97.3486 235.607 97.8255 236.725C98.3023 237.843 99.0004 238.853 99.8776 239.695C100.755 240.536 101.793 241.191 102.93 241.621C104.067 242.051 105.28 242.246 106.494 242.196C107.917 242.206 109.323 241.884 110.6 241.255C111.876 240.626 112.988 239.708 113.848 238.574L110.414 236.191C109.907 236.878 109.227 237.417 108.442 237.753C107.658 238.089 106.798 238.21 105.951 238.103C105.104 237.996 104.301 237.665 103.625 237.144C102.949 236.623 102.424 235.932 102.104 235.14H115.118C115.256 234.501 115.324 233.85 115.321 233.196C115.344 232.022 115.133 230.854 114.7 229.763C114.267 228.671 113.62 227.676 112.799 226.837C111.977 225.998 110.996 225.33 109.914 224.874C108.831 224.418 107.669 224.182 106.494 224.181ZM102.135 231.236C102.483 230.363 103.084 229.615 103.861 229.087C104.638 228.558 105.555 228.275 106.494 228.273C107.424 228.259 108.335 228.541 109.093 229.08C109.851 229.618 110.418 230.385 110.712 231.267L102.135 231.236Z" fill="#F2F2F2"/>
<path d="M215.729 239.122C215.218 239.126 214.72 239.28 214.296 239.566C213.873 239.852 213.544 240.257 213.351 240.73C213.157 241.203 213.108 241.723 213.21 242.224C213.311 242.725 213.559 243.184 213.921 243.544C214.284 243.904 214.745 244.149 215.246 244.248C215.748 244.346 216.267 244.294 216.739 244.098C217.211 243.902 217.614 243.57 217.897 243.145C218.181 242.72 218.332 242.22 218.332 241.709C218.328 241.022 218.052 240.364 217.564 239.879C217.077 239.394 216.417 239.122 215.729 239.122Z" fill="#069DE0"/>
<path d="M215.729 232.051C215.218 232.054 214.72 232.209 214.296 232.495C213.873 232.781 213.544 233.186 213.351 233.659C213.157 234.132 213.108 234.652 213.21 235.152C213.311 235.653 213.559 236.113 213.921 236.473C214.284 236.833 214.745 237.078 215.246 237.177C215.748 237.275 216.267 237.223 216.739 237.027C217.211 236.83 217.614 236.499 217.897 236.074C218.181 235.649 218.332 235.149 218.332 234.638C218.328 233.951 218.052 233.293 217.564 232.808C217.077 232.323 216.417 232.051 215.729 232.051Z" fill="#6E55DC"/>
<path d="M215.729 246.178C215.215 246.178 214.711 246.331 214.283 246.617C213.855 246.903 213.522 247.309 213.325 247.785C213.128 248.26 213.076 248.784 213.177 249.288C213.277 249.793 213.525 250.257 213.889 250.621C214.253 250.985 214.717 251.233 215.222 251.333C215.726 251.434 216.25 251.382 216.725 251.185C217.201 250.988 217.607 250.655 217.893 250.227C218.179 249.799 218.332 249.295 218.332 248.781C218.328 248.092 218.052 247.432 217.565 246.945C217.078 246.458 216.418 246.182 215.729 246.178Z" fill="#05AC3F"/>
<path d="M215.729 224.964C215.218 224.968 214.72 225.122 214.296 225.408C213.873 225.694 213.544 226.099 213.351 226.572C213.157 227.045 213.108 227.565 213.21 228.066C213.311 228.567 213.559 229.026 213.921 229.386C214.284 229.747 214.745 229.991 215.246 230.09C215.748 230.188 216.267 230.136 216.739 229.94C217.211 229.744 217.614 229.412 217.897 228.987C218.181 228.562 218.332 228.063 218.332 227.552C218.328 226.864 218.052 226.206 217.564 225.721C217.077 225.237 216.417 224.964 215.729 224.964Z" fill="#EF1541"/>
<path d="M215.729 217.893C215.216 217.896 214.716 218.052 214.292 218.34C213.867 218.629 213.538 219.037 213.346 219.512C213.154 219.988 213.108 220.51 213.214 221.012C213.319 221.514 213.571 221.973 213.939 222.332C214.306 222.69 214.771 222.931 215.276 223.024C215.78 223.117 216.301 223.058 216.772 222.855C217.243 222.652 217.642 222.313 217.92 221.881C218.198 221.45 218.341 220.946 218.332 220.433C218.328 219.746 218.052 219.088 217.564 218.603C217.077 218.118 216.417 217.846 215.729 217.846V217.893Z" fill="#FF7112"/>
<path d="M215.73 210.838C215.219 210.841 214.72 210.995 214.297 211.281C213.873 211.567 213.544 211.972 213.351 212.445C213.157 212.918 213.108 213.438 213.21 213.939C213.311 214.44 213.559 214.899 213.921 215.259C214.284 215.62 214.745 215.865 215.246 215.963C215.748 216.062 216.267 216.009 216.739 215.813C217.211 215.617 217.614 215.285 217.897 214.86C218.181 214.435 218.332 213.936 218.332 213.425C218.328 212.737 218.052 212.079 217.564 211.594C217.077 211.11 216.417 210.838 215.73 210.838Z" fill="#FCCC12"/>
<path d="M262.302 244.193C259.885 244.609 257.448 244.755 254.927 245.089L247.302 222.131V246.068C244.907 246.339 242.698 246.672 240.427 247.005V203.152H246.844L255.615 228.152V203.152H262.302V244.193ZM275.572 219.193C278.197 219.193 282.197 219.068 284.614 219.068V225.922C281.614 225.922 278.114 225.922 275.572 226.047V236.235C279.552 235.985 283.51 235.651 287.51 235.505V242.11L268.76 243.609V203.152H287.51V210.006H275.572V219.193ZM312.613 209.985H305.634V241.526C303.343 241.526 301.072 241.526 298.884 241.526V210.006H291.864V203.152H312.697L312.613 209.985ZM323.571 218.735H332.717V225.568H323.571V241.13H316.946V203.152H335.696V210.006H323.571V218.735ZM346.758 235.131C350.592 235.131 354.487 235.505 358.237 235.735V242.505C352.196 242.11 346.175 241.735 340.008 241.589V203.152H346.758V235.131ZM363.966 242.984C366.049 243.109 368.404 243.255 370.591 243.505V203.152H363.966V242.984ZM400.111 203.152L391.549 223.985L400.111 246.901C397.57 246.568 395.049 246.089 392.507 245.672L387.674 233.047L382.716 244.755C380.257 244.318 377.903 244.193 375.466 243.839L384.153 223.756L376.299 203.152H383.549L387.986 214.673L392.716 203.152H400.111Z" fill="#E50914"/>
<path d="M270.303 271.886H261.802V316.759H270.303V271.886Z" fill="#38CE7F"/>
<path fill-rule="evenodd" clip-rule="evenodd" d="M194.643 271.886H203.087V286.819C203.927 286.381 204.868 286.173 205.814 286.217H212.34C214.786 286.227 217.129 287.203 218.859 288.932C220.588 290.662 221.564 293.005 221.574 295.451V316.759H213.111V298.611C213.106 297.869 212.809 297.159 212.285 296.634C211.76 296.11 211.051 295.813 210.309 295.808H205.946C205.574 295.803 205.204 295.872 204.859 296.01C204.514 296.149 204.199 296.354 203.933 296.615C203.667 296.875 203.456 297.185 203.311 297.528C203.165 297.871 203.089 298.238 203.087 298.611V316.759H194.643V271.886Z" fill="#38CE7F"/>
<path fill-rule="evenodd" clip-rule="evenodd" d="M254.863 286.16V307.506C254.858 309.955 253.884 312.303 252.154 314.037C250.423 315.771 248.078 316.749 245.628 316.759H237.372C234.923 316.749 232.577 315.771 230.847 314.037C229.117 312.303 228.143 309.955 228.138 307.506V286.16H236.639V304.648C236.634 305.02 236.702 305.389 236.841 305.734C236.979 306.08 237.184 306.394 237.445 306.66C237.705 306.926 238.016 307.137 238.358 307.282C238.701 307.428 239.069 307.504 239.441 307.506H243.56C243.932 307.501 244.299 307.423 244.641 307.275C244.982 307.128 245.292 306.914 245.55 306.647C245.809 306.379 246.012 306.063 246.148 305.717C246.284 305.371 246.351 305.001 246.343 304.629V286.16H254.863Z" fill="#38CE7F"/>
<path fill-rule="evenodd" clip-rule="evenodd" d="M303.967 286.16V307.506C303.962 309.955 302.989 312.303 301.258 314.037C299.528 315.771 297.182 316.749 294.733 316.759H286.458C284.009 316.749 281.663 315.771 279.933 314.037C278.203 312.303 277.229 309.955 277.224 307.506V286.16H285.725V304.648C285.72 305.02 285.788 305.389 285.927 305.734C286.065 306.08 286.27 306.394 286.531 306.66C286.791 306.926 287.102 307.137 287.444 307.282C287.787 307.428 288.155 307.504 288.527 307.506H292.646C293.387 307.501 294.097 307.204 294.622 306.68C295.146 306.156 295.443 305.446 295.448 304.704V286.16H303.967Z" fill="#38CE7F"/>
<path d="M333.722 284.776C334.445 285.553 335.204 286.349 336.036 287.199H333.107C332.854 286.964 332.546 286.638 332.203 286.295C331.298 286.982 330.231 287.416 328.929 287.416C326.705 287.416 324.933 286.259 324.933 283.926C324.933 282.081 326.163 281.141 327.537 280.436C327.067 279.55 326.741 278.663 326.741 277.85C326.741 276.222 328.17 274.956 330.177 274.956C331.895 274.956 333.36 275.897 333.36 277.506C333.36 279.351 331.877 280.128 330.394 280.815C330.756 281.304 331.118 281.756 331.425 282.117C331.769 282.551 332.112 282.949 332.456 283.347C332.962 282.57 333.342 281.72 333.559 281.014L335.403 281.864C334.969 282.823 334.409 283.853 333.722 284.776ZM329.038 277.904C329.038 278.392 329.255 278.953 329.562 279.513C330.575 279.043 331.353 278.519 331.353 277.633C331.353 277 330.901 276.62 330.304 276.62C329.58 276.62 329.038 277.162 329.038 277.904ZM329.237 285.608C329.87 285.608 330.448 285.373 330.973 284.975C330.43 284.378 329.924 283.817 329.635 283.456C329.237 282.967 328.821 282.425 328.423 281.864C327.808 282.316 327.374 282.877 327.374 283.709C327.374 284.884 328.242 285.608 329.237 285.608ZM355.103 287.199H352.517V278.519L349.117 287.199H347.996L344.596 278.519V287.199H342.028V275.137H345.627L348.557 282.66L351.486 275.137H355.103V287.199ZM356.92 281.177C356.92 277.542 359.578 274.938 363.213 274.938C366.866 274.938 369.524 277.542 369.524 281.177C369.524 284.812 366.866 287.416 363.213 287.416C359.578 287.416 356.92 284.812 356.92 281.177ZM366.884 281.177C366.884 278.917 365.437 277.217 363.213 277.217C360.989 277.217 359.56 278.917 359.56 281.177C359.56 283.419 360.989 285.137 363.213 285.137C365.437 285.137 366.884 283.419 366.884 281.177ZM381.091 287.199H378.144L375.775 282.877H373.894V287.199H371.326V275.137H376.968C379.482 275.137 381.019 276.783 381.019 279.025C381.019 281.159 379.681 282.298 378.379 282.606L381.091 287.199ZM378.397 279.007C378.397 277.994 377.619 277.343 376.588 277.343H373.894V280.671H376.588C377.619 280.671 378.397 280.02 378.397 279.007ZM391.482 287.199H382.946V275.137H391.482V277.343H385.514V279.965H391.355V282.172H385.514V284.975H391.482V287.199Z" fill="#CECFD0"/>
</g>
<defs>
<filter id="filter0_f_326_6" x="27.9267" y="-19.3194" width="424.147" height="412.639" filterUnits="userSpaceOnUse" color-interpolation-filters="sRGB">
<feFlood flood-opacity="0" result="BackgroundImageFix"/>
<feBlend mode="normal" in="SourceGraphic" in2="BackgroundImageFix" result="shape"/>
<feGaussianBlur stdDeviation="24.6597" result="effect1_foregroundBlur_326_6"/>
</filter>
<linearGradient id="paint0_linear_326_6" x1="109" y1="166" x2="369.5" y2="246.5" gradientUnits="userSpaceOnUse">
<stop stop-color="#963DE4"/>
<stop offset="1" stop-color="#00DC89"/>
</linearGradient>
<radialGradient id="paint1_radial_326_6" cx="0" cy="0" r="1" gradientUnits="userSpaceOnUse" gradientTransform="translate(303.744 96.352) scale(94.2174 92.1179)">
<stop stop-color="#00FFFF"/>
<stop offset="0.6875" stop-color="#0000FF" stop-opacity="0.7"/>
<stop offset="0.734375" stop-color="#0001FB" stop-opacity="0.6"/>
<stop offset="0.78125" stop-color="#0003EE" stop-opacity="0.5"/>
<stop offset="0.864583" stop-color="#0006DA" stop-opacity="0.4"/>
<stop offset="0.890625" stop-color="#010ABD" stop-opacity="0.52"/>
<stop offset="0.942708" stop-color="#011098" stop-opacity="0.3"/>
<stop offset="1" stop-color="#01147B" stop-opacity="0"/>
</radialGradient>
<clipPath id="clip0_326_6">
<rect width="480" height="375" fill="white"/>
</clipPath>
</defs>
</svg>
